<svg width="13" height="18" viewBox="0 0 13 18" fill="none" xmlns="http://www.w3.org/2000/svg">
<path d="M6.5 7.88745C2.90727 7.88745 0 10.7947 0 14.3875V16.4556H13V14.3875C13 10.8006 10.0868 7.88745 6.5 7.88745Z" fill="url(#paint0_linear_2024_774)"/>
<path d="M6.5 7.88745C2.90727 7.88745 0 10.7947 0 14.3875V16.4556H13V14.3875C13 10.8006 10.0868 7.88745 6.5 7.88745Z" fill="url(#paint1_radial_2024_774)"/>
<g filter="url(#filter0_f_2024_774)">
<path d="M4.97476 8.68457C4.67162 8.68457 4.20894 8.66684 3.92885 8.78266L3.1134 10.3923C3.06022 10.5046 3.14885 10.6346 3.27294 10.6346H4.18885C4.33067 10.6346 4.39567 10.8059 4.30113 10.9005L3.24931 11.6935C3.09567 11.8471 3.03658 12.0776 3.1134 12.2844L4.83412 16.1259L5.7719 15.4664L4.98008 8.68457H4.97476Z" fill="#46375F"/>
</g>
<g filter="url(#filter1_f_2024_774)">
<path d="M9.39836 11.2444L8.69518 10.7551C8.67597 10.736 8.66292 10.7116 8.65769 10.685C8.65247 10.6584 8.65531 10.6309 8.66585 10.6059C8.6764 10.581 8.69416 10.5597 8.71687 10.5449C8.73957 10.5301 8.76618 10.5225 8.79327 10.5229H9.33632C9.36133 10.5228 9.3859 10.5164 9.40778 10.5043C9.42966 10.4922 9.44813 10.4747 9.4615 10.4536C9.47486 10.4325 9.48269 10.4083 9.48425 10.3833C9.48582 10.3584 9.48107 10.3334 9.47046 10.3108L8.83464 8.9576C8.70942 8.90576 8.58206 8.85923 8.45291 8.81815H8.10132V15.8269L9.52186 11.7662C9.55289 11.6764 9.55769 11.5797 9.53571 11.4873C9.51374 11.3948 9.46589 11.3106 9.39777 11.2444" fill="#493E6A"/>
</g>
<path d="M8.10141 8.25381H4.89868V16.4615H8.10141V8.25381Z" fill="url(#paint2_radial_2024_774)"/>
<path d="M8.10141 8.25381H4.89868V16.4615H8.10141V8.25381Z" fill="url(#paint3_linear_2024_774)"/>
<path d="M8.10141 8.25381H4.89868V16.4615H8.10141V8.25381Z" fill="url(#paint4_linear_2024_774)"/>
<path d="M10.6364 9.37538V16.4556H13V14.3875C13.0006 13.4292 12.789 12.4828 12.3803 11.6161C11.9716 10.7494 11.376 9.98452 10.6364 9.37538Z" fill="url(#paint5_radial_2024_774)"/>
<path d="M10.6364 9.37538V16.4556H13V14.3875C13.0006 13.4292 12.789 12.4828 12.3803 11.6161C11.9716 10.7494 11.376 9.98452 10.6364 9.37538Z" fill="url(#paint6_linear_2024_774)"/>
<g filter="url(#filter2_i_2024_774)">
<path d="M4.8987 8.23608H4.39643C4.29006 8.27154 4.1837 8.3129 4.08324 8.35427L3.33279 9.94381C3.27961 10.0561 3.36824 10.1861 3.49233 10.1861H4.11279C4.25461 10.1861 4.31961 10.3574 4.22506 10.452L3.42143 11.2379C3.26779 11.3915 3.2087 11.622 3.28552 11.8288L4.8987 16.4497H4.90461V8.23608H4.8987Z" fill="url(#paint7_linear_2024_774)"/>
<path d="M4.8987 8.23608H4.39643C4.29006 8.27154 4.1837 8.3129 4.08324 8.35427L3.33279 9.94381C3.27961 10.0561 3.36824 10.1861 3.49233 10.1861H4.11279C4.25461 10.1861 4.31961 10.3574 4.22506 10.452L3.42143 11.2379C3.26779 11.3915 3.2087 11.622 3.28552 11.8288L4.8987 16.4497H4.90461V8.23608H4.8987Z" fill="url(#paint8_linear_2024_774)"/>
<path d="M4.8987 8.23608H4.39643C4.29006 8.27154 4.1837 8.3129 4.08324 8.35427L3.33279 9.94381C3.27961 10.0561 3.36824 10.1861 3.49233 10.1861H4.11279C4.25461 10.1861 4.31961 10.3574 4.22506 10.452L3.42143 11.2379C3.26779 11.3915 3.2087 11.622 3.28552 11.8288L4.8987 16.4497H4.90461V8.23608H4.8987Z" fill="url(#paint9_radial_2024_774)"/>
</g>
<path d="M4.8987 8.23608H4.39643C4.29006 8.27154 4.1837 8.3129 4.08324 8.35427L3.33279 9.94381C3.27961 10.0561 3.36824 10.1861 3.49233 10.1861H4.11279C4.25461 10.1861 4.31961 10.3574 4.22506 10.452L3.42143 11.2379C3.26779 11.3915 3.2087 11.622 3.28552 11.8288L4.8987 16.4497H4.90461V8.23608H4.8987Z" fill="url(#paint10_linear_2024_774)"/>
<path d="M4.8987 8.23608H4.39643C4.29006 8.27154 4.1837 8.3129 4.08324 8.35427L3.33279 9.94381C3.27961 10.0561 3.36824 10.1861 3.49233 10.1861H4.11279C4.25461 10.1861 4.31961 10.3574 4.22506 10.452L3.42143 11.2379C3.26779 11.3915 3.2087 11.622 3.28552 11.8288L4.8987 16.4497H4.90461V8.23608H4.8987Z" fill="url(#paint11_radial_2024_774)"/>
<path d="M4.8987 8.23608H4.39643C4.29006 8.27154 4.1837 8.3129 4.08324 8.35427L3.33279 9.94381C3.27961 10.0561 3.36824 10.1861 3.49233 10.1861H4.11279C4.25461 10.1861 4.31961 10.3574 4.22506 10.452L3.42143 11.2379C3.26779 11.3915 3.2087 11.622 3.28552 11.8288L4.8987 16.4497H4.90461V8.23608H4.8987Z" fill="url(#paint12_linear_2024_774)"/>
<g filter="url(#filter3_ii_2024_774)">
<path d="M6.5076 9.55795L5.70574 10.3114C5.6918 10.3245 5.68249 10.3418 5.67919 10.3606C5.67588 10.3795 5.67877 10.3989 5.68742 10.416L6.0396 11.1209C6.05191 11.1455 6.07081 11.1661 6.09419 11.1805C6.11757 11.1949 6.1445 11.2025 6.17197 11.2025H6.81606C6.84364 11.2024 6.87066 11.1946 6.89406 11.18C6.91745 11.1654 6.93628 11.1445 6.94842 11.1197L7.30297 10.4035C7.31126 10.3865 7.3139 10.3673 7.3105 10.3487C7.30709 10.3301 7.29783 10.3131 7.28406 10.3001L6.5076 9.55795Z" fill="url(#paint13_linear_2024_774)"/>
</g>
<g filter="url(#filter4_i_2024_774)">
<path d="M9.5845 11.2084L8.78086 10.4225C8.75846 10.4007 8.74314 10.3727 8.73692 10.3422C8.7307 10.3116 8.73386 10.2798 8.746 10.2511C8.75814 10.2223 8.77869 10.1979 8.80494 10.181C8.8312 10.1642 8.86194 10.1556 8.89314 10.1565H9.51359C9.63768 10.1565 9.72041 10.0265 9.66723 9.91427L8.94041 8.36609C8.79859 8.307 8.65086 8.25382 8.50314 8.20654H8.10132V16.4497L9.72632 11.8052C9.79723 11.5925 9.74405 11.362 9.5845 11.2084Z" fill="#615990"/>
<path d="M9.5845 11.2084L8.78086 10.4225C8.75846 10.4007 8.74314 10.3727 8.73692 10.3422C8.7307 10.3116 8.73386 10.2798 8.746 10.2511C8.75814 10.2223 8.77869 10.1979 8.80494 10.181C8.8312 10.1642 8.86194 10.1556 8.89314 10.1565H9.51359C9.63768 10.1565 9.72041 10.0265 9.66723 9.91427L8.94041 8.36609C8.79859 8.307 8.65086 8.25382 8.50314 8.20654H8.10132V16.4497L9.72632 11.8052C9.79723 11.5925 9.74405 11.362 9.5845 11.2084Z" fill="url(#paint14_linear_2024_774)"/>
</g>
<path d="M6.50005 7.62567H4.89868V10.4266C4.89868 10.6098 5.11141 10.7161 5.25914 10.5979L6.50005 9.77481L7.74095 10.5979C7.88868 10.7161 8.10141 10.6098 8.10141 10.4266V7.62567H6.50005Z" fill="url(#paint15_radial_2024_774)"/>
<path d="M6.50005 7.62567H4.89868V10.4266C4.89868 10.6098 5.11141 10.7161 5.25914 10.5979L6.50005 9.77481L7.74095 10.5979C7.88868 10.7161 8.10141 10.6098 8.10141 10.4266V7.62567H6.50005Z" fill="url(#paint16_radial_2024_774)"/>
<path d="M1.20081 16.4556H2.34599V9.38599C1.27443 10.2753 0.517074 11.4855 0.185627 12.8381C0.0629773 13.3473 0.00265655 13.8696 0.00599035 14.3934L0.0178085 16.4556H1.20081Z" fill="url(#paint17_linear_2024_774)"/>
<path d="M6.20754 11.2025C6.17226 11.2025 6.13815 11.2151 6.11138 11.2381C6.08461 11.2611 6.06695 11.2929 6.06158 11.3277L5.27686 16.4497H7.70549L6.92667 11.3277C6.92131 11.2929 6.90365 11.2611 6.87688 11.2381C6.85011 11.2151 6.816 11.2025 6.78072 11.2025H6.20754Z" fill="url(#paint18_radial_2024_774)"/>
<path d="M6.20754 11.2025C6.17226 11.2025 6.13815 11.2151 6.11138 11.2381C6.08461 11.2611 6.06695 11.2929 6.06158 11.3277L5.27686 16.4497H7.70549L6.92667 11.3277C6.92131 11.2929 6.90365 11.2611 6.87688 11.2381C6.85011 11.2151 6.816 11.2025 6.78072 11.2025H6.20754Z" fill="url(#paint19_linear_2024_774)"/>
<path d="M6.20754 11.2025C6.17226 11.2025 6.13815 11.2151 6.11138 11.2381C6.08461 11.2611 6.06695 11.2929 6.06158 11.3277L5.27686 16.4497H7.70549L6.92667 11.3277C6.92131 11.2929 6.90365 11.2611 6.87688 11.2381C6.85011 11.2151 6.816 11.2025 6.78072 11.2025H6.20754Z" fill="url(#paint20_linear_2024_774)"/>
<path d="M5.34485 8.70884C5.35667 8.8347 5.46599 9.11657 5.78567 9.33166C5.91212 9.41675 6.50244 9.70334 6.49062 9.69802C6.5828 9.65134 6.96748 9.52075 7.24935 9.33166C7.56844 9.11716 7.67776 8.83529 7.69017 8.70884L6.51721 8.14511L5.34485 8.70884Z" fill="url(#paint21_radial_2024_774)"/>
<path d="M9.3725 5.96639C9.57046 5.96048 9.7566 5.89312 9.90728 5.78439V6.33394C9.90728 6.86221 9.59291 7.33258 9.11487 7.52758C9.21777 7.30678 9.2867 7.0717 9.31932 6.8303L9.3725 5.96639Z" fill="url(#paint22_radial_2024_774)"/>
<path d="M9.3725 5.96639C9.57046 5.96048 9.7566 5.89312 9.90728 5.78439V6.33394C9.90728 6.86221 9.59291 7.33258 9.11487 7.52758C9.21777 7.30678 9.2867 7.0717 9.31932 6.8303L9.3725 5.96639Z" fill="url(#paint23_radial_2024_774)"/>
<path d="M3.62755 5.96639C3.43517 5.96018 3.249 5.89682 3.09277 5.78439V6.33394C3.09277 6.86221 3.40714 7.33258 3.88518 7.52758C3.78228 7.30678 3.71335 7.0717 3.68073 6.8303L3.62755 5.96639Z" fill="url(#paint24_radial_2024_774)"/>
<path d="M3.62755 5.96639C3.43517 5.96018 3.249 5.89682 3.09277 5.78439V6.33394C3.09277 6.86221 3.40714 7.33258 3.88518 7.52758C3.78228 7.30678 3.71335 7.0717 3.68073 6.8303L3.62755 5.96639Z" fill="url(#paint25_radial_2024_774)"/>
<g filter="url(#filter5_ii_2024_774)">
<path d="M3.64894 6.86162C3.72211 7.41869 3.99546 7.93011 4.41799 8.30044C4.84052 8.67078 5.38336 8.87474 5.94521 8.87426H7.05966C7.62152 8.87474 8.16435 8.67078 8.58688 8.30044C9.00941 7.93011 9.28276 7.41869 9.35594 6.86162C9.42566 5.74894 9.49598 4.6398 9.54739 3.52771C9.54494 3.3094 9.45924 3.10025 9.3078 2.94299C9.15636 2.78573 8.95059 2.69221 8.73253 2.68153H7.90525C7.34094 2.68153 6.8298 2.34885 6.59816 1.82885C6.56915 1.75611 6.51904 1.69372 6.45428 1.64971C6.38951 1.60569 6.31306 1.58205 6.23475 1.58185H5.48253C4.39171 1.58185 3.5083 2.4753 3.5083 3.57853C3.5083 4.67762 3.57685 5.75898 3.64894 6.86162Z" fill="url(#paint26_radial_2024_774)"/>
</g>
<path d="M3.64894 6.86162C3.72211 7.41869 3.99546 7.93011 4.41799 8.30044C4.84052 8.67078 5.38336 8.87474 5.94521 8.87426H7.05966C7.62152 8.87474 8.16435 8.67078 8.58688 8.30044C9.00941 7.93011 9.28276 7.41869 9.35594 6.86162C9.42566 5.74894 9.49598 4.6398 9.54739 3.52771C9.54494 3.3094 9.45924 3.10025 9.3078 2.94299C9.15636 2.78573 8.95059 2.69221 8.73253 2.68153H7.90525C7.34094 2.68153 6.8298 2.34885 6.59816 1.82885C6.56915 1.75611 6.51904 1.69372 6.45428 1.64971C6.38951 1.60569 6.31306 1.58205 6.23475 1.58185H5.48253C4.39171 1.58185 3.5083 2.4753 3.5083 3.57853C3.5083 4.67762 3.57685 5.75898 3.64894 6.86162Z" fill="url(#paint27_radial_2024_774)"/>
<path d="M3.64894 6.86162C3.72211 7.41869 3.99546 7.93011 4.41799 8.30044C4.84052 8.67078 5.38336 8.87474 5.94521 8.87426H7.05966C7.62152 8.87474 8.16435 8.67078 8.58688 8.30044C9.00941 7.93011 9.28276 7.41869 9.35594 6.86162C9.42566 5.74894 9.49598 4.6398 9.54739 3.52771C9.54494 3.3094 9.45924 3.10025 9.3078 2.94299C9.15636 2.78573 8.95059 2.69221 8.73253 2.68153H7.90525C7.34094 2.68153 6.8298 2.34885 6.59816 1.82885C6.56915 1.75611 6.51904 1.69372 6.45428 1.64971C6.38951 1.60569 6.31306 1.58205 6.23475 1.58185H5.48253C4.39171 1.58185 3.5083 2.4753 3.5083 3.57853C3.5083 4.67762 3.57685 5.75898 3.64894 6.86162Z" fill="url(#paint28_radial_2024_774)"/>
<path d="M3.64894 6.86162C3.72211 7.41869 3.99546 7.93011 4.41799 8.30044C4.84052 8.67078 5.38336 8.87474 5.94521 8.87426H7.05966C7.62152 8.87474 8.16435 8.67078 8.58688 8.30044C9.00941 7.93011 9.28276 7.41869 9.35594 6.86162C9.42566 5.74894 9.49598 4.6398 9.54739 3.52771C9.54494 3.3094 9.45924 3.10025 9.3078 2.94299C9.15636 2.78573 8.95059 2.69221 8.73253 2.68153H7.90525C7.34094 2.68153 6.8298 2.34885 6.59816 1.82885C6.56915 1.75611 6.51904 1.69372 6.45428 1.64971C6.38951 1.60569 6.31306 1.58205 6.23475 1.58185H5.48253C4.39171 1.58185 3.5083 2.4753 3.5083 3.57853C3.5083 4.67762 3.57685 5.75898 3.64894 6.86162Z" fill="url(#paint29_radial_2024_774)"/>
<path d="M3.64894 6.86162C3.72211 7.41869 3.99546 7.93011 4.41799 8.30044C4.84052 8.67078 5.38336 8.87474 5.94521 8.87426H7.05966C7.62152 8.87474 8.16435 8.67078 8.58688 8.30044C9.00941 7.93011 9.28276 7.41869 9.35594 6.86162C9.42566 5.74894 9.49598 4.6398 9.54739 3.52771C9.54494 3.3094 9.45924 3.10025 9.3078 2.94299C9.15636 2.78573 8.95059 2.69221 8.73253 2.68153H7.90525C7.34094 2.68153 6.8298 2.34885 6.59816 1.82885C6.56915 1.75611 6.51904 1.69372 6.45428 1.64971C6.38951 1.60569 6.31306 1.58205 6.23475 1.58185H5.48253C4.39171 1.58185 3.5083 2.4753 3.5083 3.57853C3.5083 4.67762 3.57685 5.75898 3.64894 6.86162Z" fill="url(#paint30_radial_2024_774)"/>
<g filter="url(#filter6_f_2024_774)">
<path d="M6.2128 4.92166L5.83757 6.00775C5.77375 6.23112 5.92739 6.45448 6.14485 6.45448H6.60989C6.82794 6.45448 6.98157 6.22757 6.91716 6.00775L6.60398 4.92166C6.53603 4.68057 6.28312 4.68057 6.2128 4.92166Z" fill="#EE9020"/>
</g>
<g filter="url(#filter7_f_2024_774)">
<path d="M6.27425 4.80586L5.95988 5.89195C5.89607 6.11532 6.0497 6.33927 6.26775 6.33927H6.7322C6.95084 6.33927 7.10448 6.11236 7.04007 5.89195L6.7257 4.80586C6.65893 4.56536 6.34457 4.56536 6.27425 4.80586Z" fill="url(#paint31_linear_2024_774)"/>
<path d="M6.27425 4.80586L5.95988 5.89195C5.89607 6.11532 6.0497 6.33927 6.26775 6.33927H6.7322C6.95084 6.33927 7.10448 6.11236 7.04007 5.89195L6.7257 4.80586C6.65893 4.56536 6.34457 4.56536 6.27425 4.80586Z" fill="url(#paint32_linear_2024_774)"/>
<path d="M6.27425 4.80586L5.95988 5.89195C5.89607 6.11532 6.0497 6.33927 6.26775 6.33927H6.7322C6.95084 6.33927 7.10448 6.11236 7.04007 5.89195L6.7257 4.80586C6.65893 4.56536 6.34457 4.56536 6.27425 4.80586Z" fill="url(#paint33_linear_2024_774)"/>
<path d="M6.27425 4.80586L5.95988 5.89195C5.89607 6.11532 6.0497 6.33927 6.26775 6.33927H6.7322C6.95084 6.33927 7.10448 6.11236 7.04007 5.89195L6.7257 4.80586C6.65893 4.56536 6.34457 4.56536 6.27425 4.80586Z" fill="url(#paint34_linear_2024_774)"/>
</g>
<g filter="url(#filter8_f_2024_774)">
<path d="M5.70227 6.70623C5.93213 6.82619 6.2069 6.89533 6.49999 6.89533C6.79545 6.89533 7.06727 6.82619 7.29772 6.70623C7.32364 6.69268 7.35384 6.68789 7.38271 6.69258C7.41158 6.69726 7.43815 6.71118 7.45845 6.73223C7.47931 6.75322 7.49216 6.78085 7.49475 6.81033C7.49734 6.8398 7.48951 6.86925 7.47263 6.89355M5.70227 6.70623L7.4354 6.86873M5.70227 6.70623C5.67612 6.69266 5.64566 6.68802 5.61663 6.69303C5.5876 6.69805 5.56102 6.71244 5.54095 6.73401C5.52042 6.75483 5.50782 6.78219 5.50534 6.81133C5.50285 6.84046 5.51064 6.86955 5.52736 6.89355M5.70227 6.70623L5.56458 6.86873M7.47263 6.89355L7.4354 6.86873M7.47263 6.89355C7.36613 7.05388 7.22154 7.1853 7.0518 7.27605C6.88206 7.3668 6.69247 7.41404 6.49999 7.41355C6.30752 7.41404 6.11792 7.3668 5.94818 7.27605C5.77844 7.1853 5.63385 7.05388 5.52736 6.89355M7.4354 6.86873C7.33297 7.02304 7.19441 7.14949 7.03104 7.23674C6.86768 7.32399 6.6852 7.36932 6.49999 7.36864C6.31489 7.36922 6.13253 7.32385 5.96927 7.2366C5.80602 7.14935 5.66697 7.02295 5.56458 6.86873M5.52736 6.89355L5.52795 6.89414L5.56458 6.86873M5.52736 6.89355L5.56458 6.86873" stroke="url(#paint35_radial_2024_774)" stroke-width="0.15"/>
</g>
<path d="M6.49991 6.93963C6.19973 6.93963 5.91787 6.86872 5.68091 6.74581C5.59996 6.70445 5.51309 6.79545 5.5645 6.86872C5.76246 7.1689 6.10696 7.36863 6.49991 7.36863C6.89287 7.36863 7.23737 7.1689 7.43532 6.86872C7.48673 6.79249 7.39987 6.70445 7.31832 6.74522C7.06515 6.87496 6.78439 6.94166 6.49991 6.93963Z" fill="url(#paint36_radial_2024_774)"/>
<g filter="url(#filter9_ii_2024_774)">
<path d="M9.36877 1.30295C9.6725 1.40755 9.9455 1.61968 10.1175 1.924C10.249 2.15334 10.3129 2.41523 10.3018 2.67937C10.2907 2.94351 10.2051 3.19912 10.0548 3.41664C9.95111 3.56914 9.89553 3.74925 9.89527 3.93368V4.63568C9.77636 4.5559 9.64213 4.50177 9.50114 4.47673L9.54723 3.52773C9.54478 3.30941 9.45908 3.10027 9.30764 2.94301C9.1562 2.78574 8.95043 2.69222 8.73236 2.68155H7.90509C7.34077 2.68155 6.82964 2.34886 6.598 1.82886C6.56899 1.75613 6.51888 1.69374 6.45411 1.64972C6.38935 1.6057 6.3129 1.58207 6.23459 1.58186H5.48236C4.39155 1.58186 3.50814 2.47532 3.50814 3.57855L3.52586 4.48677C3.37406 4.50589 3.22859 4.55923 3.10041 4.64277V3.93368C3.10015 3.74925 3.04457 3.56914 2.94086 3.41664C2.79765 3.20577 2.71418 2.96007 2.69931 2.70561C2.68443 2.45114 2.7387 2.19739 2.85636 1.97127C3.01892 1.6602 3.29346 1.42241 3.62455 1.30591C3.96345 1.18626 4.25162 0.954976 4.44177 0.65C4.61497 0.370826 4.88247 0.162958 5.19577 0.0640883C5.50908 -0.0347812 5.84744 -0.0181057 6.1495 0.111091C6.26075 0.15974 6.38085 0.184854 6.50227 0.184854C6.62369 0.184854 6.7438 0.15974 6.85505 0.111091C7.02109 0.0413636 7.20309 0 7.39455 0C7.89268 0 8.32818 0.269455 8.56986 0.668909C8.75127 0.970273 9.03668 1.18891 9.36877 1.30295Z" fill="url(#paint37_linear_2024_774)"/>
<path d="M9.36877 1.30295C9.6725 1.40755 9.9455 1.61968 10.1175 1.924C10.249 2.15334 10.3129 2.41523 10.3018 2.67937C10.2907 2.94351 10.2051 3.19912 10.0548 3.41664C9.95111 3.56914 9.89553 3.74925 9.89527 3.93368V4.63568C9.77636 4.5559 9.64213 4.50177 9.50114 4.47673L9.54723 3.52773C9.54478 3.30941 9.45908 3.10027 9.30764 2.94301C9.1562 2.78574 8.95043 2.69222 8.73236 2.68155H7.90509C7.34077 2.68155 6.82964 2.34886 6.598 1.82886C6.56899 1.75613 6.51888 1.69374 6.45411 1.64972C6.38935 1.6057 6.3129 1.58207 6.23459 1.58186H5.48236C4.39155 1.58186 3.50814 2.47532 3.50814 3.57855L3.52586 4.48677C3.37406 4.50589 3.22859 4.55923 3.10041 4.64277V3.93368C3.10015 3.74925 3.04457 3.56914 2.94086 3.41664C2.79765 3.20577 2.71418 2.96007 2.69931 2.70561C2.68443 2.45114 2.7387 2.19739 2.85636 1.97127C3.01892 1.6602 3.29346 1.42241 3.62455 1.30591C3.96345 1.18626 4.25162 0.954976 4.44177 0.65C4.61497 0.370826 4.88247 0.162958 5.19577 0.0640883C5.50908 -0.0347812 5.84744 -0.0181057 6.1495 0.111091C6.26075 0.15974 6.38085 0.184854 6.50227 0.184854C6.62369 0.184854 6.7438 0.15974 6.85505 0.111091C7.02109 0.0413636 7.20309 0 7.39455 0C7.89268 0 8.32818 0.269455 8.56986 0.668909C8.75127 0.970273 9.03668 1.18891 9.36877 1.30295Z" fill="url(#paint38_radial_2024_774)"/>
<path d="M9.36877 1.30295C9.6725 1.40755 9.9455 1.61968 10.1175 1.924C10.249 2.15334 10.3129 2.41523 10.3018 2.67937C10.2907 2.94351 10.2051 3.19912 10.0548 3.41664C9.95111 3.56914 9.89553 3.74925 9.89527 3.93368V4.63568C9.77636 4.5559 9.64213 4.50177 9.50114 4.47673L9.54723 3.52773C9.54478 3.30941 9.45908 3.10027 9.30764 2.94301C9.1562 2.78574 8.95043 2.69222 8.73236 2.68155H7.90509C7.34077 2.68155 6.82964 2.34886 6.598 1.82886C6.56899 1.75613 6.51888 1.69374 6.45411 1.64972C6.38935 1.6057 6.3129 1.58207 6.23459 1.58186H5.48236C4.39155 1.58186 3.50814 2.47532 3.50814 3.57855L3.52586 4.48677C3.37406 4.50589 3.22859 4.55923 3.10041 4.64277V3.93368C3.10015 3.74925 3.04457 3.56914 2.94086 3.41664C2.79765 3.20577 2.71418 2.96007 2.69931 2.70561C2.68443 2.45114 2.7387 2.19739 2.85636 1.97127C3.01892 1.6602 3.29346 1.42241 3.62455 1.30591C3.96345 1.18626 4.25162 0.954976 4.44177 0.65C4.61497 0.370826 4.88247 0.162958 5.19577 0.0640883C5.50908 -0.0347812 5.84744 -0.0181057 6.1495 0.111091C6.26075 0.15974 6.38085 0.184854 6.50227 0.184854C6.62369 0.184854 6.7438 0.15974 6.85505 0.111091C7.02109 0.0413636 7.20309 0 7.39455 0C7.89268 0 8.32818 0.269455 8.56986 0.668909C8.75127 0.970273 9.03668 1.18891 9.36877 1.30295Z" fill="url(#paint39_radial_2024_774)"/>
<path d="M9.36877 1.30295C9.6725 1.40755 9.9455 1.61968 10.1175 1.924C10.249 2.15334 10.3129 2.41523 10.3018 2.67937C10.2907 2.94351 10.2051 3.19912 10.0548 3.41664C9.95111 3.56914 9.89553 3.74925 9.89527 3.93368V4.63568C9.77636 4.5559 9.64213 4.50177 9.50114 4.47673L9.54723 3.52773C9.54478 3.30941 9.45908 3.10027 9.30764 2.94301C9.1562 2.78574 8.95043 2.69222 8.73236 2.68155H7.90509C7.34077 2.68155 6.82964 2.34886 6.598 1.82886C6.56899 1.75613 6.51888 1.69374 6.45411 1.64972C6.38935 1.6057 6.3129 1.58207 6.23459 1.58186H5.48236C4.39155 1.58186 3.50814 2.47532 3.50814 3.57855L3.52586 4.48677C3.37406 4.50589 3.22859 4.55923 3.10041 4.64277V3.93368C3.10015 3.74925 3.04457 3.56914 2.94086 3.41664C2.79765 3.20577 2.71418 2.96007 2.69931 2.70561C2.68443 2.45114 2.7387 2.19739 2.85636 1.97127C3.01892 1.6602 3.29346 1.42241 3.62455 1.30591C3.96345 1.18626 4.25162 0.954976 4.44177 0.65C4.61497 0.370826 4.88247 0.162958 5.19577 0.0640883C5.50908 -0.0347812 5.84744 -0.0181057 6.1495 0.111091C6.26075 0.15974 6.38085 0.184854 6.50227 0.184854C6.62369 0.184854 6.7438 0.15974 6.85505 0.111091C7.02109 0.0413636 7.20309 0 7.39455 0C7.89268 0 8.32818 0.269455 8.56986 0.668909C8.75127 0.970273 9.03668 1.18891 9.36877 1.30295Z" fill="url(#paint40_radial_2024_774)"/>
<path d="M9.36877 1.30295C9.6725 1.40755 9.9455 1.61968 10.1175 1.924C10.249 2.15334 10.3129 2.41523 10.3018 2.67937C10.2907 2.94351 10.2051 3.19912 10.0548 3.41664C9.95111 3.56914 9.89553 3.74925 9.89527 3.93368V4.63568C9.77636 4.5559 9.64213 4.50177 9.50114 4.47673L9.54723 3.52773C9.54478 3.30941 9.45908 3.10027 9.30764 2.94301C9.1562 2.78574 8.95043 2.69222 8.73236 2.68155H7.90509C7.34077 2.68155 6.82964 2.34886 6.598 1.82886C6.56899 1.75613 6.51888 1.69374 6.45411 1.64972C6.38935 1.6057 6.3129 1.58207 6.23459 1.58186H5.48236C4.39155 1.58186 3.50814 2.47532 3.50814 3.57855L3.52586 4.48677C3.37406 4.50589 3.22859 4.55923 3.10041 4.64277V3.93368C3.10015 3.74925 3.04457 3.56914 2.94086 3.41664C2.79765 3.20577 2.71418 2.96007 2.69931 2.70561C2.68443 2.45114 2.7387 2.19739 2.85636 1.97127C3.01892 1.6602 3.29346 1.42241 3.62455 1.30591C3.96345 1.18626 4.25162 0.954976 4.44177 0.65C4.61497 0.370826 4.88247 0.162958 5.19577 0.0640883C5.50908 -0.0347812 5.84744 -0.0181057 6.1495 0.111091C6.26075 0.15974 6.38085 0.184854 6.50227 0.184854C6.62369 0.184854 6.7438 0.15974 6.85505 0.111091C7.02109 0.0413636 7.20309 0 7.39455 0C7.89268 0 8.32818 0.269455 8.56986 0.668909C8.75127 0.970273 9.03668 1.18891 9.36877 1.30295Z" fill="url(#paint41_radial_2024_774)"/>
</g>
<g filter="url(#filter10_i_2024_774)">
<path d="M8.70584 3.46746C8.58988 3.35769 8.45133 3.2746 8.29989 3.224C8.11966 3.16728 7.89452 3.1525 7.58312 3.19032C7.56178 3.19292 7.54116 3.1997 7.52244 3.21027C7.50372 3.22084 7.48726 3.23499 7.47401 3.25192C7.46076 3.26884 7.45097 3.28822 7.4452 3.30893C7.43944 3.32964 7.43781 3.35128 7.44041 3.37262C7.44301 3.39396 7.44979 3.41458 7.46036 3.4333C7.47092 3.45202 7.48508 3.46847 7.502 3.48173C7.51893 3.49498 7.5383 3.50476 7.55901 3.51053C7.57972 3.51629 7.60137 3.51792 7.62271 3.51532C7.90752 3.48105 8.08125 3.49878 8.20121 3.5366C8.31821 3.57382 8.39739 3.6335 8.49075 3.71387C8.52369 3.74029 8.56558 3.75296 8.60765 3.74923C8.64971 3.74549 8.68871 3.72564 8.71648 3.69383C8.74425 3.66201 8.75865 3.62069 8.75667 3.5785C8.75469 3.53632 8.73648 3.49653 8.70584 3.46746Z" fill="#C05029"/>
</g>
<g filter="url(#filter11_i_2024_774)">
<path d="M4.48501 3.40304C4.79498 3.22145 5.15602 3.14671 5.5126 3.19032C5.53394 3.19296 5.55455 3.19977 5.57326 3.21038C5.59197 3.22098 5.6084 3.23516 5.62162 3.25212C5.63485 3.26907 5.6446 3.28847 5.65033 3.30919C5.65606 3.32992 5.65765 3.35157 5.65501 3.37291C5.65237 3.39425 5.64556 3.41486 5.63495 3.43357C5.62435 3.45227 5.61017 3.4687 5.59321 3.48193C5.57626 3.49515 5.55686 3.50491 5.53614 3.51064C5.51541 3.51637 5.49376 3.51796 5.47242 3.51532C5.1881 3.48062 4.90024 3.53998 4.65283 3.68432C4.63425 3.69541 4.61611 3.70724 4.59847 3.71977L4.59729 3.72036C4.56296 3.747 4.51946 3.75892 4.47636 3.75349C4.43325 3.74806 4.39406 3.72573 4.36742 3.69141C4.34078 3.65709 4.32886 3.61359 4.33429 3.57048C4.33972 3.52737 4.36205 3.48819 4.39638 3.46154L4.48501 3.40304Z" fill="#C05029"/>
</g>
<g filter="url(#filter12_f_2024_774)">
<path d="M6.63772 1.90982C6.62369 1.88325 6.61048 1.85626 6.59813 1.82887C6.56911 1.75613 6.519 1.69374 6.45424 1.64973C6.38948 1.60571 6.31302 1.58208 6.23472 1.58187H5.48249C4.39167 1.58187 3.50826 2.47532 3.50826 3.57855V3.74105C3.30735 3.58801 3.05444 3.26537 3.05444 2.7436C3.05444 2.11014 3.51653 1.79046 3.81081 1.58601C3.89413 1.5281 3.96444 1.47964 4.0064 1.4365L4.06549 1.37446C4.27231 1.15582 4.63985 0.765232 5.28276 0.594459C5.57382 0.520699 5.87373 0.487883 6.17385 0.496959C6.45276 0.503459 6.64953 0.745141 6.64953 1.02405V1.90214L6.63772 1.90982Z" fill="url(#paint42_radial_2024_774)"/>
<path d="M6.63772 1.90982C6.62369 1.88325 6.61048 1.85626 6.59813 1.82887C6.56911 1.75613 6.519 1.69374 6.45424 1.64973C6.38948 1.60571 6.31302 1.58208 6.23472 1.58187H5.48249C4.39167 1.58187 3.50826 2.47532 3.50826 3.57855V3.74105C3.30735 3.58801 3.05444 3.26537 3.05444 2.7436C3.05444 2.11014 3.51653 1.79046 3.81081 1.58601C3.89413 1.5281 3.96444 1.47964 4.0064 1.4365L4.06549 1.37446C4.27231 1.15582 4.63985 0.765232 5.28276 0.594459C5.57382 0.520699 5.87373 0.487883 6.17385 0.496959C6.45276 0.503459 6.64953 0.745141 6.64953 1.02405V1.90214L6.63772 1.90982Z" fill="url(#paint43_radial_2024_774)"/>
</g>
<g filter="url(#filter13_f_2024_774)">
<path d="M9.5804 3.90235L9.56268 3.52948C9.55677 3.07803 9.1839 2.70576 8.73245 2.68685H7.90518C7.6484 2.68686 7.39635 2.61773 7.17551 2.48672C6.95466 2.35571 6.77317 2.16766 6.65009 1.9423C6.65009 1.9423 6.61522 1.86253 6.57918 1.72544C6.4279 1.15226 6.97568 0.71321 7.55772 0.826073C8.13268 0.938346 8.78799 1.13157 9.27254 1.44771C10.3031 2.12016 10.1234 3.33153 9.5804 3.90235Z" fill="url(#paint44_radial_2024_774)"/>
<path d="M9.5804 3.90235L9.56268 3.52948C9.55677 3.07803 9.1839 2.70576 8.73245 2.68685H7.90518C7.6484 2.68686 7.39635 2.61773 7.17551 2.48672C6.95466 2.35571 6.77317 2.16766 6.65009 1.9423C6.65009 1.9423 6.61522 1.86253 6.57918 1.72544C6.4279 1.15226 6.97568 0.71321 7.55772 0.826073C8.13268 0.938346 8.78799 1.13157 9.27254 1.44771C10.3031 2.12016 10.1234 3.33153 9.5804 3.90235Z" fill="url(#paint45_radial_2024_774)"/>
<path d="M9.5804 3.90235L9.56268 3.52948C9.55677 3.07803 9.1839 2.70576 8.73245 2.68685H7.90518C7.6484 2.68686 7.39635 2.61773 7.17551 2.48672C6.95466 2.35571 6.77317 2.16766 6.65009 1.9423C6.65009 1.9423 6.61522 1.86253 6.57918 1.72544C6.4279 1.15226 6.97568 0.71321 7.55772 0.826073C8.13268 0.938346 8.78799 1.13157 9.27254 1.44771C10.3031 2.12016 10.1234 3.33153 9.5804 3.90235Z" fill="url(#paint46_radial_2024_774)"/>
<path d="M9.5804 3.90235L9.56268 3.52948C9.55677 3.07803 9.1839 2.70576 8.73245 2.68685H7.90518C7.6484 2.68686 7.39635 2.61773 7.17551 2.48672C6.95466 2.35571 6.77317 2.16766 6.65009 1.9423C6.65009 1.9423 6.61522 1.86253 6.57918 1.72544C6.4279 1.15226 6.97568 0.71321 7.55772 0.826073C8.13268 0.938346 8.78799 1.13157 9.27254 1.44771C10.3031 2.12016 10.1234 3.33153 9.5804 3.90235Z" fill="url(#paint47_radial_2024_774)"/>
<path d="M9.5804 3.90235L9.56268 3.52948C9.55677 3.07803 9.1839 2.70576 8.73245 2.68685H7.90518C7.6484 2.68686 7.39635 2.61773 7.17551 2.48672C6.95466 2.35571 6.77317 2.16766 6.65009 1.9423C6.65009 1.9423 6.61522 1.86253 6.57918 1.72544C6.4279 1.15226 6.97568 0.71321 7.55772 0.826073C8.13268 0.938346 8.78799 1.13157 9.27254 1.44771C10.3031 2.12016 10.1234 3.33153 9.5804 3.90235Z" fill="url(#paint48_radial_2024_774)"/>
</g>
<path d="M7.91289 4.2439C8.29875 4.2439 8.62493 4.50981 8.71357 4.87026C8.71951 4.89422 8.7199 4.91922 8.71471 4.94335C8.70951 4.96748 8.69886 4.99011 8.68358 5.00949C8.6683 5.02888 8.64879 5.04452 8.62654 5.05521C8.60429 5.0659 8.57989 5.07136 8.5552 5.07117H7.23748C7.21743 5.07133 7.1976 5.06706 7.1794 5.05866C7.16121 5.05026 7.14509 5.03793 7.13222 5.02257C7.11934 5.00721 7.11002 4.98919 7.10493 4.96981C7.09983 4.95042 7.09909 4.93015 7.10275 4.91044C7.1397 4.72271 7.24068 4.55363 7.38843 4.43206C7.53618 4.3105 7.72155 4.24399 7.91289 4.2439Z" fill="white"/>
<path d="M7.79056 4.40463C7.87163 4.40477 7.95157 4.42358 8.02419 4.45961C8.09681 4.49564 8.16015 4.54792 8.2093 4.61238C8.25845 4.67685 8.29208 4.75177 8.30759 4.83133C8.32311 4.9109 8.32008 4.99297 8.29875 5.07118H7.28002C7.25901 4.9928 7.25629 4.91064 7.27209 4.83105C7.28788 4.75146 7.32175 4.67656 7.3711 4.61214C7.42044 4.54772 7.48393 4.4955 7.55666 4.45952C7.62939 4.42354 7.70942 4.40476 7.79056 4.40463Z" fill="url(#paint49_radial_2024_774)"/>
<path d="M7.48867 4.93232C7.48851 4.89259 7.49621 4.85323 7.51132 4.81649C7.52643 4.77975 7.54866 4.74636 7.57672 4.71825C7.60478 4.69013 7.63813 4.66784 7.67484 4.65265C7.71155 4.63747 7.75089 4.62969 7.79062 4.62977C7.84268 4.62935 7.89395 4.64245 7.93942 4.66779C7.9849 4.69313 8.02302 4.72984 8.05005 4.77432C8.07709 4.81881 8.09212 4.86955 8.09367 4.92158C8.09522 4.97362 8.08324 5.02516 8.05889 5.07118H7.52471C7.50056 5.02892 7.48811 4.98099 7.48867 4.93232Z" fill="black"/>
<g filter="url(#filter14_f_2024_774)">
<path d="M7.75147 4.51632C7.78929 4.56655 7.7107 4.62801 7.62147 4.69419C7.53225 4.76155 7.46606 4.80823 7.42825 4.75801C7.39102 4.70778 7.43297 4.61264 7.5222 4.54587C7.61084 4.4791 7.71425 4.4661 7.75147 4.51632Z" fill="#C7A7A3"/>
<path d="M7.75147 4.51632C7.78929 4.56655 7.7107 4.62801 7.62147 4.69419C7.53225 4.76155 7.46606 4.80823 7.42825 4.75801C7.39102 4.70778 7.43297 4.61264 7.5222 4.54587C7.61084 4.4791 7.71425 4.4661 7.75147 4.51632Z" fill="url(#paint50_radial_2024_774)"/>
</g>
<g filter="url(#filter15_f_2024_774)">
<path d="M8.26035 4.86261C8.24477 4.75932 8.197 4.66358 8.12385 4.58902L7.97021 4.75802L8.03935 4.89275L8.26035 4.86261Z" fill="url(#paint51_linear_2024_774)"/>
</g>
<path d="M5.08775 4.2439C4.70129 4.2439 4.37511 4.50981 4.28648 4.87026C4.26048 4.97308 4.33966 5.07117 4.44484 5.07117H5.76316C5.78315 5.07124 5.80291 5.06691 5.82104 5.05847C5.83916 5.05003 5.8552 5.03769 5.86802 5.02234C5.88083 5.00699 5.89009 4.98901 5.89515 4.96966C5.90021 4.95032 5.90094 4.9301 5.89729 4.91044C5.86005 4.72296 5.75907 4.55415 5.61151 4.43265C5.46395 4.31115 5.27889 4.24446 5.08775 4.2439Z" fill="white"/>
<path d="M5.20946 4.40463C5.12836 4.40465 5.04835 4.42339 4.97567 4.45938C4.90299 4.49537 4.8396 4.54765 4.79042 4.61215C4.74125 4.67665 4.70762 4.75162 4.69216 4.83124C4.6767 4.91085 4.67982 4.99296 4.70128 5.07118H5.72001C5.73249 5.02593 5.73905 4.97925 5.73951 4.93231C5.73857 4.79224 5.68235 4.65821 5.58308 4.55939C5.48382 4.46056 5.34953 4.40494 5.20946 4.40463Z" fill="url(#paint52_radial_2024_774)"/>
<path d="M5.51147 4.93231C5.51162 4.89259 5.50392 4.85322 5.48881 4.81649C5.4737 4.77975 5.45147 4.74636 5.42341 4.71824C5.39535 4.69013 5.362 4.66783 5.32529 4.65265C5.28859 4.63747 5.24924 4.62969 5.20951 4.62977C5.15747 4.62942 5.10622 4.64255 5.06077 4.66789C5.01531 4.69323 4.97719 4.72991 4.95011 4.77435C4.92304 4.8188 4.90794 4.8695 4.90628 4.92152C4.90462 4.97354 4.91646 5.02509 4.94065 5.07118H5.47542C5.49855 5.02851 5.51092 4.98084 5.51147 4.93231Z" fill="black"/>
<g filter="url(#filter16_f_2024_774)">
<path d="M5.69112 4.87027C5.69112 4.6995 5.55285 4.58604 5.51562 4.55118L5.34485 4.71663L5.45003 4.92995L5.69112 4.87027Z" fill="url(#paint53_linear_2024_774)"/>
</g>
<g filter="url(#filter17_f_2024_774)">
<path d="M5.10499 4.73261C5.21746 4.67303 5.28424 4.57867 5.25414 4.52186C5.22404 4.46505 5.10847 4.4673 4.996 4.52688C4.88353 4.58646 4.81676 4.68082 4.84685 4.73763C4.87695 4.79444 4.99252 4.79219 5.10499 4.73261Z" fill="#C7A7A3" fill-opacity="0.9"/>
<path d="M5.10499 4.73261C5.21746 4.67303 5.28424 4.57867 5.25414 4.52186C5.22404 4.46505 5.10847 4.4673 4.996 4.52688C4.88353 4.58646 4.81676 4.68082 4.84685 4.73763C4.87695 4.79444 4.99252 4.79219 5.10499 4.73261Z" fill="url(#paint54_radial_2024_774)"/>
</g>
<path d="M9.40845 6.0208C9.44745 5.39148 9.48527 4.76334 9.51717 4.13461C9.74583 4.17598 9.95143 4.29961 10.0952 4.48216C10.239 4.66471 10.311 4.89356 10.2976 5.12554C10.2842 5.35752 10.1864 5.57659 10.0226 5.7414C9.85879 5.90622 9.64034 6.00539 9.40845 6.0202" fill="url(#paint55_linear_2024_774)"/>
<path d="M9.40845 6.0208C9.44745 5.39148 9.48527 4.76334 9.51717 4.13461C9.74583 4.17598 9.95143 4.29961 10.0952 4.48216C10.239 4.66471 10.311 4.89356 10.2976 5.12554C10.2842 5.35752 10.1864 5.57659 10.0226 5.7414C9.85879 5.90622 9.64034 6.00539 9.40845 6.0202" fill="url(#paint56_radial_2024_774)"/>
<path d="M9.40845 6.0208C9.44745 5.39148 9.48527 4.76334 9.51717 4.13461C9.74583 4.17598 9.95143 4.29961 10.0952 4.48216C10.239 4.66471 10.311 4.89356 10.2976 5.12554C10.2842 5.35752 10.1864 5.57659 10.0226 5.7414C9.85879 5.90622 9.64034 6.00539 9.40845 6.0202" fill="url(#paint57_radial_2024_774)"/>
<path d="M3.51349 4.12985C3.28058 4.16414 3.06865 4.28357 2.91868 4.46504C2.76872 4.64652 2.69136 4.87716 2.70158 5.11236C2.7118 5.34756 2.80886 5.57062 2.974 5.73841C3.13913 5.9062 3.36062 6.0068 3.59563 6.02076C3.5553 5.39109 3.52792 4.76065 3.51349 4.12985Z" fill="url(#paint58_linear_2024_774)"/>
<path d="M3.51349 4.12985C3.28058 4.16414 3.06865 4.28357 2.91868 4.46504C2.76872 4.64652 2.69136 4.87716 2.70158 5.11236C2.7118 5.34756 2.80886 5.57062 2.974 5.73841C3.13913 5.9062 3.36062 6.0068 3.59563 6.02076C3.5553 5.39109 3.52792 4.76065 3.51349 4.12985Z" fill="url(#paint59_radial_2024_774)"/>
<g filter="url(#filter18_f_2024_774)">
<path d="M3.52354 4.51984C3.3943 4.54901 3.27943 4.62267 3.199 4.72796C3.11858 4.83324 3.07771 4.96344 3.08356 5.0958C3.0894 5.22816 3.14158 5.35425 3.23097 5.45204C3.32036 5.54982 3.44128 5.61308 3.57258 5.63075C3.55178 5.26065 3.53543 4.89032 3.52354 4.51984Z" fill="#DD8224"/>
</g>
<g filter="url(#filter19_f_2024_774)">
<path d="M9.43213 5.63549C9.45458 5.26085 9.47704 4.88562 9.49713 4.51099C9.63957 4.52831 9.77006 4.59924 9.86206 4.70936C9.95406 4.81947 10.0007 4.96049 9.99238 5.10374C9.9841 5.24699 9.92156 5.38171 9.81748 5.48049C9.71341 5.57927 9.57562 5.63469 9.43213 5.63549Z" fill="#FFC837"/>
</g>
<g filter="url(#filter20_f_2024_774)">
<path d="M4.50684 3.5685C4.6587 3.45919 4.97484 3.29373 5.46411 3.29373" stroke="#CC6854" stroke-width="0.15" stroke-linecap="round"/>
</g>
<g filter="url(#filter21_f_2024_774)">
<path d="M8.5848 3.49642C8.45539 3.35814 8.0908 3.2246 7.62634 3.3156" stroke="#CC6854" stroke-width="0.15" stroke-linecap="round"/>
</g>
<defs>
<filter id="filter0_f_2024_774" x="2.07983" y="7.68359" width="4.69202" height="9.44229" filterUnits="userSpaceOnUse" color-interpolation-filters="sRGB">
<feFlood flood-opacity="0" result="BackgroundImageFix"/>
<feBlend mode="normal" in="SourceGraphic" in2="BackgroundImageFix" result="shape"/>
<feGaussianBlur stdDeviation="0.5" result="effect1_foregroundBlur_2024_774"/>
</filter>
<filter id="filter1_f_2024_774" x="7.35132" y="8.06815" width="2.948" height="8.50876" filterUnits="userSpaceOnUse" color-interpolation-filters="sRGB">
<feFlood flood-opacity="0" result="BackgroundImageFix"/>
<feBlend mode="normal" in="SourceGraphic" in2="BackgroundImageFix" result="shape"/>
<feGaussianBlur stdDeviation="0.375" result="effect1_foregroundBlur_2024_774"/>
</filter>
<filter id="filter2_i_2024_774" x="3.25195" y="8.23608" width="1.75271" height="8.31362" filterUnits="userSpaceOnUse" color-interpolation-filters="sRGB">
<feFlood flood-opacity="0" result="BackgroundImageFix"/>
<feBlend mode="normal" in="SourceGraphic" in2="BackgroundImageFix" result="shape"/>
<feColorMatrix in="SourceAlpha" type="matrix" values="0 0 0 0 0 0 0 0 0 0 0 0 0 0 0 0 0 0 127 0" result="hardAlpha"/>
<feOffset dx="0.1" dy="0.1"/>
<feGaussianBlur stdDeviation="0.1"/>
<feComposite in2="hardAlpha" operator="arithmetic" k2="-1" k3="1"/>
<feColorMatrix type="matrix" values="0 0 0 0 0.403922 0 0 0 0 0.368627 0 0 0 0 0.494118 0 0 0 1 0"/>
<feBlend mode="normal" in2="shape" result="effect1_innerShadow_2024_774"/>
</filter>
<filter id="filter3_ii_2024_774" x="5.57786" y="9.45795" width="1.83403" height="1.7445" filterUnits="userSpaceOnUse" color-interpolation-filters="sRGB">
<feFlood flood-opacity="0" result="BackgroundImageFix"/>
<feBlend mode="normal" in="SourceGraphic" in2="BackgroundImageFix" result="shape"/>
<feColorMatrix in="SourceAlpha" type="matrix" values="0 0 0 0 0 0 0 0 0 0 0 0 0 0 0 0 0 0 127 0" result="hardAlpha"/>
<feOffset dx="0.1" dy="-0.1"/>
<feGaussianBlur stdDeviation="0.25"/>
<feComposite in2="hardAlpha" operator="arithmetic" k2="-1" k3="1"/>
<feColorMatrix type="matrix" values="0 0 0 0 0.156863 0 0 0 0 0.0980392 0 0 0 0 0.215686 0 0 0 1 0"/>
<feBlend mode="normal" in2="shape" result="effect1_innerShadow_2024_774"/>
<feColorMatrix in="SourceAlpha" type="matrix" values="0 0 0 0 0 0 0 0 0 0 0 0 0 0 0 0 0 0 127 0" result="hardAlpha"/>
<feOffset dx="-0.1" dy="-0.1"/>
<feGaussianBlur stdDeviation="0.25"/>
<feComposite in2="hardAlpha" operator="arithmetic" k2="-1" k3="1"/>
<feColorMatrix type="matrix" values="0 0 0 0 0.156863 0 0 0 0 0.0980392 0 0 0 0 0.215686 0 0 0 1 0"/>
<feBlend mode="normal" in2="effect1_innerShadow_2024_774" result="effect2_innerShadow_2024_774"/>
</filter>
<filter id="filter4_i_2024_774" x="8.00132" y="8.20654" width="1.75576" height="8.34319" filterUnits="userSpaceOnUse" color-interpolation-filters="sRGB">
<feFlood flood-opacity="0" result="BackgroundImageFix"/>
<feBlend mode="normal" in="SourceGraphic" in2="BackgroundImageFix" result="shape"/>
<feColorMatrix in="SourceAlpha" type="matrix" values="0 0 0 0 0 0 0 0 0 0 0 0 0 0 0 0 0 0 127 0" result="hardAlpha"/>
<feOffset dx="-0.1" dy="0.1"/>
<feGaussianBlur stdDeviation="0.1"/>
<feComposite in2="hardAlpha" operator="arithmetic" k2="-1" k3="1"/>
<feColorMatrix type="matrix" values="0 0 0 0 0.439216 0 0 0 0 0.415686 0 0 0 0 0.584314 0 0 0 1 0"/>
<feBlend mode="normal" in2="shape" result="effect1_innerShadow_2024_774"/>
</filter>
<filter id="filter5_ii_2024_774" x="3.5083" y="1.58185" width="6.53906" height="7.49242" filterUnits="userSpaceOnUse" color-interpolation-filters="sRGB">
<feFlood flood-opacity="0" result="BackgroundImageFix"/>
<feBlend mode="normal" in="SourceGraphic" in2="BackgroundImageFix" result="shape"/>
<feColorMatrix in="SourceAlpha" type="matrix" values="0 0 0 0 0 0 0 0 0 0 0 0 0 0 0 0 0 0 127 0" result="hardAlpha"/>
<feOffset dx="0.5"/>
<feGaussianBlur stdDeviation="0.5"/>
<feComposite in2="hardAlpha" operator="arithmetic" k2="-1" k3="1"/>
<feColorMatrix type="matrix" values="0 0 0 0 0.823529 0 0 0 0 0.623529 0 0 0 0 0.313726 0 0 0 1 0"/>
<feBlend mode="normal" in2="shape" result="effect1_innerShadow_2024_774"/>
<feColorMatrix in="SourceAlpha" type="matrix" values="0 0 0 0 0 0 0 0 0 0 0 0 0 0 0 0 0 0 127 0" result="hardAlpha"/>
<feOffset dy="0.2"/>
<feGaussianBlur stdDeviation="0.375"/>
<feComposite in2="hardAlpha" operator="arithmetic" k2="-1" k3="1"/>
<feColorMatrix type="matrix" values="0 0 0 0 0.980392 0 0 0 0 0.54902 0 0 0 0 0.0941176 0 0 0 1 0"/>
<feBlend mode="normal" in2="effect1_innerShadow_2024_774" result="effect2_innerShadow_2024_774"/>
</filter>
<filter id="filter6_f_2024_774" x="4.823" y="3.74084" width="3.10901" height="3.71362" filterUnits="userSpaceOnUse" color-interpolation-filters="sRGB">
<feFlood flood-opacity="0" result="BackgroundImageFix"/>
<feBlend mode="normal" in="SourceGraphic" in2="BackgroundImageFix" result="shape"/>
<feGaussianBlur stdDeviation="0.5" result="effect1_foregroundBlur_2024_774"/>
</filter>
<filter id="filter7_f_2024_774" x="5.84531" y="4.52549" width="1.30962" height="1.91378" filterUnits="userSpaceOnUse" color-interpolation-filters="sRGB">
<feFlood flood-opacity="0" result="BackgroundImageFix"/>
<feBlend mode="normal" in="SourceGraphic" in2="BackgroundImageFix" result="shape"/>
<feGaussianBlur stdDeviation="0.05" result="effect1_foregroundBlur_2024_774"/>
</filter>
<filter id="filter8_f_2024_774" x="5.32993" y="6.51581" width="2.34026" height="1.07274" filterUnits="userSpaceOnUse" color-interpolation-filters="sRGB">
<feFlood flood-opacity="0" result="BackgroundImageFix"/>
<feBlend mode="normal" in="SourceGraphic" in2="BackgroundImageFix" result="shape"/>
<feGaussianBlur stdDeviation="0.05" result="effect1_foregroundBlur_2024_774"/>
</filter>
<filter id="filter9_ii_2024_774" x="2.6969" y="-0.5" width="7.60608" height="5.14276" filterUnits="userSpaceOnUse" color-interpolation-filters="sRGB">
<feFlood flood-opacity="0" result="BackgroundImageFix"/>
<feBlend mode="normal" in="SourceGraphic" in2="BackgroundImageFix" result="shape"/>
<feColorMatrix in="SourceAlpha" type="matrix" values="0 0 0 0 0 0 0 0 0 0 0 0 0 0 0 0 0 0 127 0" result="hardAlpha"/>
<feOffset dy="-0.5"/>
<feGaussianBlur stdDeviation="0.625"/>
<feComposite in2="hardAlpha" operator="arithmetic" k2="-1" k3="1"/>
<feColorMatrix type="matrix" values="0 0 0 0 0.945098 0 0 0 0 0.509804 0 0 0 0 0.0627451 0 0 0 1 0"/>
<feBlend mode="normal" in2="shape" result="effect1_innerShadow_2024_774"/>
<feColorMatrix in="SourceAlpha" type="matrix" values="0 0 0 0 0 0 0 0 0 0 0 0 0 0 0 0 0 0 127 0" result="hardAlpha"/>
<feOffset dy="-0.2"/>
<feGaussianBlur stdDeviation="0.2"/>
<feComposite in2="hardAlpha" operator="arithmetic" k2="-1" k3="1"/>
<feColorMatrix type="matrix" values="0 0 0 0 0.862745 0 0 0 0 0.486275 0 0 0 0 0.0470588 0 0 0 1 0"/>
<feBlend mode="normal" in2="effect1_innerShadow_2024_774" result="effect2_innerShadow_2024_774"/>
</filter>
<filter id="filter10_i_2024_774" x="7.43921" y="2.9694" width="1.41763" height="0.780475" filterUnits="userSpaceOnUse" color-interpolation-filters="sRGB">
<feFlood flood-opacity="0" result="BackgroundImageFix"/>
<feBlend mode="normal" in="SourceGraphic" in2="BackgroundImageFix" result="shape"/>
<feColorMatrix in="SourceAlpha" type="matrix" values="0 0 0 0 0 0 0 0 0 0 0 0 0 0 0 0 0 0 127 0" result="hardAlpha"/>
<feOffset dx="0.1" dy="-0.2"/>
<feGaussianBlur stdDeviation="0.125"/>
<feComposite in2="hardAlpha" operator="arithmetic" k2="-1" k3="1"/>
<feColorMatrix type="matrix" values="0 0 0 0 0.603922 0 0 0 0 0.243137 0 0 0 0 0.152941 0 0 0 1 0"/>
<feBlend mode="normal" in2="shape" result="effect1_innerShadow_2024_774"/>
</filter>
<filter id="filter11_i_2024_774" x="4.33301" y="2.97819" width="1.42324" height="0.776599" filterUnits="userSpaceOnUse" color-interpolation-filters="sRGB">
<feFlood flood-opacity="0" result="BackgroundImageFix"/>
<feBlend mode="normal" in="SourceGraphic" in2="BackgroundImageFix" result="shape"/>
<feColorMatrix in="SourceAlpha" type="matrix" values="0 0 0 0 0 0 0 0 0 0 0 0 0 0 0 0 0 0 127 0" result="hardAlpha"/>
<feOffset dx="0.1" dy="-0.2"/>
<feGaussianBlur stdDeviation="0.125"/>
<feComposite in2="hardAlpha" operator="arithmetic" k2="-1" k3="1"/>
<feColorMatrix type="matrix" values="0 0 0 0 0.603922 0 0 0 0 0.243137 0 0 0 0 0.152941 0 0 0 1 0"/>
<feBlend mode="normal" in2="shape" result="effect1_innerShadow_2024_774"/>
</filter>
<filter id="filter12_f_2024_774" x="2.80444" y="0.245483" width="4.09509" height="3.74557" filterUnits="userSpaceOnUse" color-interpolation-filters="sRGB">
<feFlood flood-opacity="0" result="BackgroundImageFix"/>
<feBlend mode="normal" in="SourceGraphic" in2="BackgroundImageFix" result="shape"/>
<feGaussianBlur stdDeviation="0.125" result="effect1_foregroundBlur_2024_774"/>
</filter>
<filter id="filter13_f_2024_774" x="6.30371" y="0.558289" width="3.96387" height="3.59406" filterUnits="userSpaceOnUse" color-interpolation-filters="sRGB">
<feFlood flood-opacity="0" result="BackgroundImageFix"/>
<feBlend mode="normal" in="SourceGraphic" in2="BackgroundImageFix" result="shape"/>
<feGaussianBlur stdDeviation="0.125" result="effect1_foregroundBlur_2024_774"/>
</filter>
<filter id="filter14_f_2024_774" x="7.31467" y="4.38578" width="0.546558" height="0.493335" filterUnits="userSpaceOnUse" color-interpolation-filters="sRGB">
<feFlood flood-opacity="0" result="BackgroundImageFix"/>
<feBlend mode="normal" in="SourceGraphic" in2="BackgroundImageFix" result="shape"/>
<feGaussianBlur stdDeviation="0.05" result="effect1_foregroundBlur_2024_774"/>
</filter>
<filter id="filter15_f_2024_774" x="7.77021" y="4.38902" width="0.690161" height="0.703741" filterUnits="userSpaceOnUse" color-interpolation-filters="sRGB">
<feFlood flood-opacity="0" result="BackgroundImageFix"/>
<feBlend mode="normal" in="SourceGraphic" in2="BackgroundImageFix" result="shape"/>
<feGaussianBlur stdDeviation="0.1" result="effect1_foregroundBlur_2024_774"/>
</filter>
<filter id="filter16_f_2024_774" x="5.14485" y="4.35118" width="0.746313" height="0.778784" filterUnits="userSpaceOnUse" color-interpolation-filters="sRGB">
<feFlood flood-opacity="0" result="BackgroundImageFix"/>
<feBlend mode="normal" in="SourceGraphic" in2="BackgroundImageFix" result="shape"/>
<feGaussianBlur stdDeviation="0.1" result="effect1_foregroundBlur_2024_774"/>
</filter>
<filter id="filter17_f_2024_774" x="4.7396" y="4.38068" width="0.621753" height="0.498126" filterUnits="userSpaceOnUse" color-interpolation-filters="sRGB">
<feFlood flood-opacity="0" result="BackgroundImageFix"/>
<feBlend mode="normal" in="SourceGraphic" in2="BackgroundImageFix" result="shape"/>
<feGaussianBlur stdDeviation="0.05" result="effect1_foregroundBlur_2024_774"/>
</filter>
<filter id="filter18_f_2024_774" x="2.83301" y="4.26984" width="0.989624" height="1.6109" filterUnits="userSpaceOnUse" color-interpolation-filters="sRGB">
<feFlood flood-opacity="0" result="BackgroundImageFix"/>
<feBlend mode="normal" in="SourceGraphic" in2="BackgroundImageFix" result="shape"/>
<feGaussianBlur stdDeviation="0.125" result="effect1_foregroundBlur_2024_774"/>
</filter>
<filter id="filter19_f_2024_774" x="9.18213" y="4.26099" width="1.06116" height="1.62451" filterUnits="userSpaceOnUse" color-interpolation-filters="sRGB">
<feFlood flood-opacity="0" result="BackgroundImageFix"/>
<feBlend mode="normal" in="SourceGraphic" in2="BackgroundImageFix" result="shape"/>
<feGaussianBlur stdDeviation="0.125" result="effect1_foregroundBlur_2024_774"/>
</filter>
<filter id="filter20_f_2024_774" x="4.28188" y="3.06872" width="1.40718" height="0.724805" filterUnits="userSpaceOnUse" color-interpolation-filters="sRGB">
<feFlood flood-opacity="0" result="BackgroundImageFix"/>
<feBlend mode="normal" in="SourceGraphic" in2="BackgroundImageFix" result="shape"/>
<feGaussianBlur stdDeviation="0.075" result="effect1_foregroundBlur_2024_774"/>
</filter>
<filter id="filter21_f_2024_774" x="7.40127" y="3.06075" width="1.40852" height="0.660657" filterUnits="userSpaceOnUse" color-interpolation-filters="sRGB">
<feFlood flood-opacity="0" result="BackgroundImageFix"/>
<feBlend mode="normal" in="SourceGraphic" in2="BackgroundImageFix" result="shape"/>
<feGaussianBlur stdDeviation="0.075" result="effect1_foregroundBlur_2024_774"/>
</filter>
<linearGradient id="paint0_linear_2024_774" x1="6.5" y1="8.36668" x2="6.5" y2="17.1937" gradientUnits="userSpaceOnUse">
<stop stop-color="#594E72"/>
<stop offset="1" stop-color="#594984"/>
</linearGradient>
<radialGradient id="paint1_radial_2024_774" cx="0" cy="0" r="1" gradientUnits="userSpaceOnUse" gradientTransform="translate(10.6334 13.7924) rotate(-90) scale(9.7094 3.76414)">
<stop offset="0.156" stop-color="#7B74A6"/>
<stop offset="1" stop-color="#5F5490" stop-opacity="0"/>
</radialGradient>
<radialGradient id="paint2_radial_2024_774" cx="0" cy="0" r="1" gradientUnits="userSpaceOnUse" gradientTransform="translate(6.50004 12.3577) rotate(90) scale(5.98089 2.71638)">
<stop offset="0.397" stop-color="#C6BBD1"/>
<stop offset="1" stop-color="#A89CB3"/>
</radialGradient>
<linearGradient id="paint3_linear_2024_774" x1="8.21545" y1="13.6849" x2="7.12582" y2="13.6849" gradientUnits="userSpaceOnUse">
<stop stop-color="#7A6C85"/>
<stop offset="1" stop-color="#C7BCD2" stop-opacity="0"/>
</linearGradient>
<linearGradient id="paint4_linear_2024_774" x1="6.25836" y1="9.28081" x2="6.30445" y2="11.58" gradientUnits="userSpaceOnUse">
<stop stop-color="#877F93"/>
<stop offset="1" stop-color="#877F93" stop-opacity="0"/>
</linearGradient>
<radialGradient id="paint5_radial_2024_774" cx="0" cy="0" r="1" gradientUnits="userSpaceOnUse" gradientTransform="translate(11.8182 16.4556) rotate(-90) scale(6.09434 0.995286)">
<stop stop-color="#776D9F"/>
<stop offset="1" stop-color="#6D6193"/>
</radialGradient>
<linearGradient id="paint6_linear_2024_774" x1="10.6364" y1="16.1525" x2="11.076" y2="16.1383" gradientUnits="userSpaceOnUse">
<stop offset="0.276" stop-color="#504176"/>
<stop offset="1" stop-color="#504176" stop-opacity="0"/>
</linearGradient>
<linearGradient id="paint7_linear_2024_774" x1="4.07852" y1="8.23608" x2="4.07852" y2="16.4497" gradientUnits="userSpaceOnUse">
<stop stop-color="#594B78"/>
<stop offset="0.524" stop-color="#5D5087"/>
</linearGradient>
<linearGradient id="paint8_linear_2024_774" x1="5.12383" y1="12.0528" x2="4.75688" y2="12.0528" gradientUnits="userSpaceOnUse">
<stop stop-color="#553A63"/>
<stop offset="1" stop-color="#553A63" stop-opacity="0"/>
</linearGradient>
<radialGradient id="paint9_radial_2024_774" cx="0" cy="0" r="1" gradientUnits="userSpaceOnUse" gradientTransform="translate(5.15006 8.40377) rotate(126.18) scale(1.53278 2.12409)">
<stop stop-color="#4E3360"/>
<stop offset="1" stop-color="#4E3360" stop-opacity="0"/>
</radialGradient>
<linearGradient id="paint10_linear_2024_774" x1="4.07852" y1="14.0719" x2="4.6322" y2="13.8344" gradientUnits="userSpaceOnUse">
<stop offset="0.196" stop-color="#594C7D"/>
<stop offset="1" stop-color="#594C7D" stop-opacity="0"/>
</linearGradient>
<radialGradient id="paint11_radial_2024_774" cx="0" cy="0" r="1" gradientUnits="userSpaceOnUse" gradientTransform="translate(3.77893 10.4024) rotate(-15.9454) scale(0.672169 0.330329)">
<stop offset="0.241" stop-color="#4B3B6D"/>
<stop offset="1" stop-color="#4B3B6D" stop-opacity="0"/>
</radialGradient>
<linearGradient id="paint12_linear_2024_774" x1="4.2682" y1="8.23608" x2="4.39288" y2="8.47304" gradientUnits="userSpaceOnUse">
<stop stop-color="#584360"/>
<stop offset="1" stop-color="#584360" stop-opacity="0"/>
</linearGradient>
<linearGradient id="paint13_linear_2024_774" x1="6.49283" y1="9.94559" x2="6.49283" y2="11.1185" gradientUnits="userSpaceOnUse">
<stop offset="0.006" stop-color="#5A3859"/>
<stop offset="1" stop-color="#463952"/>
</linearGradient>
<linearGradient id="paint14_linear_2024_774" x1="8.10132" y1="11.4902" x2="8.92918" y2="11.4902" gradientUnits="userSpaceOnUse">
<stop offset="0.093" stop-color="#5A4C74"/>
<stop offset="1" stop-color="#625A91" stop-opacity="0"/>
</linearGradient>
<radialGradient id="paint15_radial_2024_774" cx="0" cy="0" r="1" gradientUnits="userSpaceOnUse" gradientTransform="translate(6.50004 9.66844) rotate(90) scale(2.21591 2.58635)">
<stop offset="0.362" stop-color="#CDBED0"/>
<stop offset="1" stop-color="#A093A3"/>
</radialGradient>
<radialGradient id="paint16_radial_2024_774" cx="0" cy="0" r="1" gradientUnits="userSpaceOnUse" gradientTransform="translate(6.50004 11.1439) rotate(-90) scale(3.06534 4.02732)">
<stop offset="0.533" stop-color="#9D8392" stop-opacity="0"/>
<stop offset="0.876" stop-color="#815A72"/>
</radialGradient>
<linearGradient id="paint17_linear_2024_774" x1="2.63081" y1="12.9143" x2="1.19372" y2="12.9143" gradientUnits="userSpaceOnUse">
<stop stop-color="#43395F"/>
<stop offset="1" stop-color="#43395F" stop-opacity="0"/>
</linearGradient>
<radialGradient id="paint18_radial_2024_774" cx="0" cy="0" r="1" gradientUnits="userSpaceOnUse" gradientTransform="translate(6.48999 11.3768) rotate(90) scale(5.20739 2.04146)">
<stop offset="0.006" stop-color="#59416D"/>
<stop offset="0.94" stop-color="#3D3247"/>
</radialGradient>
<linearGradient id="paint19_linear_2024_774" x1="5.67631" y1="13.4243" x2="5.84945" y2="13.4473" gradientUnits="userSpaceOnUse">
<stop stop-color="#2B1B3A"/>
<stop offset="1" stop-color="#2B1B3A" stop-opacity="0"/>
</linearGradient>
<linearGradient id="paint20_linear_2024_774" x1="7.33381" y1="13.3155" x2="7.09804" y2="13.3433" gradientUnits="userSpaceOnUse">
<stop stop-color="#2B1B3A"/>
<stop offset="1" stop-color="#2B1B3A" stop-opacity="0"/>
</linearGradient>
<radialGradient id="paint21_radial_2024_774" cx="0" cy="0" r="1" gradientUnits="userSpaceOnUse" gradientTransform="translate(6.5178 8.92807) rotate(90) scale(1.47035 2.20335)">
<stop offset="0.272" stop-color="#DD8931"/>
<stop offset="1" stop-color="#A85F21"/>
</radialGradient>
<radialGradient id="paint22_radial_2024_774" cx="0" cy="0" r="1" gradientUnits="userSpaceOnUse" gradientTransform="translate(9.77816 5.7845) rotate(103.169) scale(2.26257 2.68776)">
<stop offset="0.043" stop-color="#FFC135"/>
<stop offset="1" stop-color="#E26839"/>
</radialGradient>
<radialGradient id="paint23_radial_2024_774" cx="0" cy="0" r="1" gradientUnits="userSpaceOnUse" gradientTransform="translate(9.33759 5.94245) rotate(53.902) scale(0.29419 0.249913)">
<stop stop-color="#E18C2A"/>
<stop offset="1" stop-color="#E18C2A" stop-opacity="0"/>
</radialGradient>
<radialGradient id="paint24_radial_2024_774" cx="0" cy="0" r="1" gradientUnits="userSpaceOnUse" gradientTransform="translate(3.22159 5.85412) rotate(71.2341) scale(2.44857 1.11299)">
<stop stop-color="#D57A26"/>
<stop offset="1" stop-color="#D06A3C"/>
</radialGradient>
<radialGradient id="paint25_radial_2024_774" cx="0" cy="0" r="1" gradientUnits="userSpaceOnUse" gradientTransform="translate(3.61261 5.84845) rotate(72.29) scale(0.618629 0.542667)">
<stop offset="0.263" stop-color="#BE691E"/>
<stop offset="0.977" stop-color="#BE691E" stop-opacity="0"/>
</radialGradient>
<radialGradient id="paint26_radial_2024_774" cx="0" cy="0" r="1" gradientUnits="userSpaceOnUse" gradientTransform="translate(8.15935 5.22776) rotate(180) scale(3.08918 5.46473)">
<stop stop-color="#FFE846"/>
<stop offset="1" stop-color="#F5A129"/>
</radialGradient>
<radialGradient id="paint27_radial_2024_774" cx="0" cy="0" r="1" gradientUnits="userSpaceOnUse" gradientTransform="translate(6.38544 8.97176) rotate(-90) scale(2.00071 7.78298)">
<stop offset="0.082" stop-color="#E27426"/>
<stop offset="1" stop-color="#FFA041" stop-opacity="0"/>
</radialGradient>
<radialGradient id="paint28_radial_2024_774" cx="0" cy="0" r="1" gradientUnits="userSpaceOnUse" gradientTransform="translate(9.54739 5.09126) rotate(93.7745) scale(3.61352 1.32848)">
<stop offset="0.39" stop-color="#FFD930"/>
<stop offset="1" stop-color="#FFD930" stop-opacity="0"/>
</radialGradient>
<radialGradient id="paint29_radial_2024_774" cx="0" cy="0" r="1" gradientUnits="userSpaceOnUse" gradientTransform="translate(5.26448 4.53048) rotate(-90) scale(0.835463 1.00585)">
<stop offset="0.276" stop-color="#F59632"/>
<stop offset="1" stop-color="#F59632" stop-opacity="0"/>
</radialGradient>
<radialGradient id="paint30_radial_2024_774" cx="0" cy="0" r="1" gradientUnits="userSpaceOnUse" gradientTransform="translate(7.97085 4.28703) rotate(-90) scale(0.907187 1.17665)">
<stop offset="0.178" stop-color="#FFBE3A"/>
<stop offset="1" stop-color="#FFBE3A" stop-opacity="0"/>
</radialGradient>
<linearGradient id="paint31_linear_2024_774" x1="6.49998" y1="5.71764" x2="7.0052" y2="5.71764" gradientUnits="userSpaceOnUse">
<stop stop-color="#FFC92F"/>
<stop offset="1" stop-color="#FFEA47"/>
</linearGradient>
<linearGradient id="paint32_linear_2024_774" x1="5.86593" y1="5.62604" x2="6.50116" y2="5.66091" gradientUnits="userSpaceOnUse">
<stop stop-color="#F49F22"/>
<stop offset="1" stop-color="#F49F22" stop-opacity="0"/>
</linearGradient>
<linearGradient id="paint33_linear_2024_774" x1="6.49998" y1="5.95341" x2="6.49998" y2="6.45686" gradientUnits="userSpaceOnUse">
<stop stop-color="#E88830" stop-opacity="0"/>
<stop offset="0.845" stop-color="#E88830"/>
</linearGradient>
<linearGradient id="paint34_linear_2024_774" x1="6.49998" y1="4.62505" x2="6.49998" y2="4.87323" gradientUnits="userSpaceOnUse">
<stop stop-color="#FAC137"/>
<stop offset="1" stop-color="#FAC137" stop-opacity="0"/>
</linearGradient>
<radialGradient id="paint35_radial_2024_774" cx="0" cy="0" r="1" gradientUnits="userSpaceOnUse" gradientTransform="translate(5.83418 7.17147) rotate(-60.732) scale(0.419604 1.22105)">
<stop stop-color="#FFB534"/>
<stop offset="1" stop-color="#FFB534" stop-opacity="0"/>
</radialGradient>
<radialGradient id="paint36_radial_2024_774" cx="0" cy="0" r="1" gradientUnits="userSpaceOnUse" gradientTransform="translate(6.49991 7.31958) rotate(-90) scale(0.425892 1.71347)">
<stop stop-color="#89014E"/>
<stop offset="1" stop-color="#87004D"/>
</radialGradient>
<linearGradient id="paint37_linear_2024_774" x1="9.66955" y1="1.88205" x2="3.68718" y2="1.88205" gradientUnits="userSpaceOnUse">
<stop stop-color="#FFE235"/>
<stop offset="1" stop-color="#D29935"/>
</linearGradient>
<radialGradient id="paint38_radial_2024_774" cx="0" cy="0" r="1" gradientUnits="userSpaceOnUse" gradientTransform="translate(3.40946 4.29355) rotate(-90) scale(3.37939 5.98762)">
<stop offset="0.315" stop-color="#C98537"/>
<stop offset="1" stop-color="#C98537" stop-opacity="0"/>
</radialGradient>
<radialGradient id="paint39_radial_2024_774" cx="0" cy="0" r="1" gradientUnits="userSpaceOnUse" gradientTransform="translate(9.37173 4.29355) rotate(-90) scale(2.14657 3.80329)">
<stop stop-color="#FFB52A"/>
<stop offset="1" stop-color="#FFB52A" stop-opacity="0"/>
</radialGradient>
<radialGradient id="paint40_radial_2024_774" cx="0" cy="0" r="1" gradientUnits="userSpaceOnUse" gradientTransform="translate(8.92677 0.584409) rotate(-160.666) scale(2.5716 1.36955)">
<stop offset="0.347" stop-color="#FFE639"/>
<stop offset="1" stop-color="#FFE639" stop-opacity="0"/>
</radialGradient>
<radialGradient id="paint41_radial_2024_774" cx="0" cy="0" r="1" gradientUnits="userSpaceOnUse" gradientTransform="translate(5.96455 -0.356318) rotate(58.465) scale(1.02261 2.36787)">
<stop offset="0.287" stop-color="#F3C130"/>
<stop offset="1" stop-color="#F3C130" stop-opacity="0"/>
</radialGradient>
<radialGradient id="paint42_radial_2024_774" cx="0" cy="0" r="1" gradientUnits="userSpaceOnUse" gradientTransform="translate(6.64953 0.495778) rotate(160.16) scale(2.39149 0.665606)">
<stop stop-color="#FFDD30"/>
<stop offset="1" stop-color="#FFDC2B" stop-opacity="0"/>
</radialGradient>
<radialGradient id="paint43_radial_2024_774" cx="0" cy="0" r="1" gradientUnits="userSpaceOnUse" gradientTransform="translate(3.2914 3.30851) rotate(-57.7244) scale(3.56118 3.94542)">
<stop offset="0.093" stop-color="#D67227"/>
<stop offset="0.233" stop-color="#EF8A23"/>
<stop offset="1" stop-color="#EF8A23" stop-opacity="0"/>
</radialGradient>
<radialGradient id="paint44_radial_2024_774" cx="0" cy="0" r="1" gradientUnits="userSpaceOnUse" gradientTransform="translate(8.63909 1.18121) rotate(13.3069) scale(2.05589 1.1498)">
<stop stop-color="#FFEB3B"/>
<stop offset="1" stop-color="#FFEB3B" stop-opacity="0"/>
</radialGradient>
<radialGradient id="paint45_radial_2024_774" cx="0" cy="0" r="1" gradientUnits="userSpaceOnUse" gradientTransform="translate(9.53083 3.90274) rotate(-120.119) scale(2.53016 1.41105)">
<stop stop-color="#EB8F29"/>
<stop offset="1" stop-color="#EB8F29" stop-opacity="0"/>
</radialGradient>
<radialGradient id="paint46_radial_2024_774" cx="0" cy="0" r="1" gradientUnits="userSpaceOnUse" gradientTransform="translate(9.16389 3.72513) rotate(-120.695) scale(1.51338 1.08397)">
<stop offset="0.394" stop-color="#E48421"/>
<stop offset="1" stop-color="#E48421" stop-opacity="0"/>
</radialGradient>
<radialGradient id="paint47_radial_2024_774" cx="0" cy="0" r="1" gradientUnits="userSpaceOnUse" gradientTransform="translate(9.33281 1.11266) rotate(166.509) scale(2.91589 3.15219)">
<stop offset="0.735" stop-color="#F29415" stop-opacity="0"/>
<stop offset="1" stop-color="#F29415"/>
</radialGradient>
<radialGradient id="paint48_radial_2024_774" cx="0" cy="0" r="1" gradientUnits="userSpaceOnUse" gradientTransform="translate(8.5404 1.0388) rotate(107.002) scale(0.237112 1.08405)">
<stop offset="0.461" stop-color="#FFCE3C"/>
<stop offset="1" stop-color="#FFCE3C" stop-opacity="0"/>
</radialGradient>
<radialGradient id="paint49_radial_2024_774" cx="0" cy="0" r="1" gradientUnits="userSpaceOnUse" gradientTransform="translate(7.78938 4.6865) rotate(90) scale(0.479416 0.762562)">
<stop offset="0.802" stop-color="#925C51"/>
<stop offset="1" stop-color="#85534D"/>
</radialGradient>
<radialGradient id="paint50_radial_2024_774" cx="0" cy="0" r="1" gradientUnits="userSpaceOnUse" gradientTransform="translate(7.65438 4.73679) rotate(-127.812) scale(0.223535 0.307752)">
<stop offset="0.766" stop-color="#FFE6E2" stop-opacity="0"/>
<stop offset="0.966" stop-color="#FFE6E2"/>
</radialGradient>
<linearGradient id="paint51_linear_2024_774" x1="8.24912" y1="4.71843" x2="8.06358" y2="4.83247" gradientUnits="userSpaceOnUse">
<stop stop-color="#B4948D"/>
<stop offset="1" stop-color="#B4948D" stop-opacity="0"/>
</linearGradient>
<radialGradient id="paint52_radial_2024_774" cx="0" cy="0" r="1" gradientUnits="userSpaceOnUse" gradientTransform="translate(5.21064 4.6865) rotate(90) scale(0.47944 0.762604)">
<stop offset="0.802" stop-color="#925C51"/>
<stop offset="1" stop-color="#85534D"/>
</radialGradient>
<linearGradient id="paint53_linear_2024_774" x1="5.65035" y1="4.71841" x2="5.4648" y2="4.83245" gradientUnits="userSpaceOnUse">
<stop stop-color="#B4948D"/>
<stop offset="1" stop-color="#B4948D" stop-opacity="0"/>
</linearGradient>
<radialGradient id="paint54_radial_2024_774" cx="0" cy="0" r="1" gradientUnits="userSpaceOnUse" gradientTransform="translate(5.12928 4.79865) rotate(-118.811) scale(0.291992 0.350996)">
<stop offset="0.766" stop-color="#FFE6E2" stop-opacity="0"/>
<stop offset="0.966" stop-color="#FFE6E2"/>
</radialGradient>
<linearGradient id="paint55_linear_2024_774" x1="10.3031" y1="4.73439" x2="9.59045" y2="6.0202" gradientUnits="userSpaceOnUse">
<stop stop-color="#FFE343"/>
<stop offset="1" stop-color="#FFC136"/>
</linearGradient>
<radialGradient id="paint56_radial_2024_774" cx="0" cy="0" r="1" gradientUnits="userSpaceOnUse" gradientTransform="translate(9.22881 4.69479) rotate(74.3475) scale(1.37663 1.3134)">
<stop offset="0.856" stop-color="#E1943D" stop-opacity="0"/>
<stop offset="1" stop-color="#E08F2E"/>
</radialGradient>
<radialGradient id="paint57_radial_2024_774" cx="0" cy="0" r="1" gradientUnits="userSpaceOnUse" gradientTransform="translate(9.44154 5.01625) rotate(-53.9198) scale(0.790444 0.662552)">
<stop offset="0.664" stop-color="#FFBD22"/>
<stop offset="1" stop-color="#FFBD22" stop-opacity="0"/>
</radialGradient>
<linearGradient id="paint58_linear_2024_774" x1="3.04313" y1="5.15035" x2="3.90526" y2="5.07472" gradientUnits="userSpaceOnUse">
<stop stop-color="#E39726"/>
<stop offset="1" stop-color="#D9851D"/>
</linearGradient>
<radialGradient id="paint59_radial_2024_774" cx="0" cy="0" r="1" gradientUnits="userSpaceOnUse" gradientTransform="translate(3.39039 4.79374) rotate(101.248) scale(1.25077 1.22962)">
<stop offset="0.775" stop-color="#C77937" stop-opacity="0"/>
<stop offset="1" stop-color="#C77937"/>
</radialGradient>
</defs>
</svg>
