<svg width="55" height="55" viewBox="0 0 55 55" fill="none" xmlns="http://www.w3.org/2000/svg">
<rect width="55" height="55" rx="8" fill="#D3D3D3"/>
<rect width="55" height="55" rx="8" fill="#F35F31"/>
<path d="M14.1773 14.1776C15.9101 12.4448 17.9673 11.0702 20.2313 10.1324C22.4953 9.19466 24.9219 8.71199 27.3724 8.71199C29.823 8.71199 32.2496 9.19466 34.5136 10.1325C36.7776 11.0702 38.8347 12.4448 40.5676 14.1776C42.3004 15.9104 43.6749 17.9675 44.6127 20.2316C45.5505 22.4956 46.0332 24.9221 46.0332 27.3727C46.0332 29.8233 45.5505 32.2498 44.6127 34.5139C43.6749 36.7779 42.3004 38.835 40.5676 40.5678L33.97 33.9703C34.8364 33.1039 35.5237 32.0753 35.9926 30.9433C36.4615 29.8113 36.7028 28.598 36.7028 27.3727C36.7028 26.1474 36.4615 24.9341 35.9926 23.8021C35.5237 22.6701 34.8364 21.6415 33.97 20.7751C33.1036 19.9087 32.075 19.2215 30.943 18.7526C29.811 18.2837 28.5977 18.0423 27.3724 18.0423C26.1472 18.0423 24.9339 18.2837 23.8019 18.7526C22.6699 19.2215 21.6413 19.9087 20.7749 20.7751L14.1773 14.1776Z" fill="white"/>
<path d="M40.5675 40.5678C37.068 44.0674 32.3215 46.0334 27.3724 46.0334C22.4233 46.0334 17.6769 44.0674 14.1773 40.5678C10.6777 37.0682 8.7117 32.3218 8.7117 27.3727C8.7117 22.4236 10.6777 17.6771 14.1773 14.1776L20.7749 20.7751C19.0251 22.5249 18.0421 24.8981 18.0421 27.3727C18.0421 29.8472 19.0251 32.2205 20.7749 33.9702C22.5246 35.72 24.8979 36.703 27.3724 36.703C29.847 36.703 32.2202 35.72 33.97 33.9702L40.5675 40.5678Z" fill="#FFCF23"/>
</svg>
