<svg width="25" height="24" viewBox="0 0 25 24" fill="none" xmlns="http://www.w3.org/2000/svg">
<path d="M4 6C5.65685 6 7 4.88071 7 3.5C7 2.11929 5.65685 1 4 1C2.34315 1 1 2.11929 1 3.5C1 4.88071 2.34315 6 4 6Z" fill="#0835A7"/>
<path d="M9.54672 7.38585V22.9987H14.1777V15.2778C14.1777 13.2405 14.5439 11.2675 16.957 11.2675C19.3371 11.2675 19.3665 13.5968 19.3665 15.4064V23H24V14.4379C24 10.2322 23.135 7 18.4389 7C16.1842 7 14.6729 8.29518 14.0548 9.5209H13.9922V7.38585H9.54672ZM2 7.38585H6.63837V22.9987H2V7.38585Z" fill="#0835A7"/>
</svg>
